<svg id="vectors" xmlns="http://www.w3.org/2000/svg" viewBox="0 0 150 150"><defs><style>.cls-1{fill:none;stroke:#050505;stroke-linecap:round;}.cls-1,.cls-2{stroke-linejoin:round;}.cls-2,.cls-3{fill:#552aa8;}.cls-2{stroke:#552aa8;}</style></defs><title>Fluent-Commerce</title><path class="cls-1" d="M36,90.49a42.42,42.42,0,1,1,84.83,0h-8a38.42,38.42,0,0,0-76.84,0"/><path class="cls-2" d="M80.91,86.77l4.87-23.9L72,83a5.45,5.45,0,0,0-.56,1,5,5,0,1,0,9.16,3.88A4.65,4.65,0,0,0,80.91,86.77Z"/><circle class="cls-3" cx="42.44" cy="87.51" r="1.5"/><circle class="cls-3" cx="47.89" cy="72.75" r="1.5"/><circle class="cls-3" cx="60.23" cy="61.92" r="1.5"/><line class="cls-1" x1="76.3" y1="48.73" x2="76.3" y2="52.12"/><line class="cls-1" x1="95.69" y1="58.49" x2="99.75" y2="53.82"/><line class="cls-1" x1="109.46" y1="74.71" x2="116.48" y2="71.75"/></svg>